Coordinates
version=1
nRows=27
nColumns=12
inDegrees=yes

Units are S.I. units (second, meters, Newtons, ...)
Angles are in degrees

endheader
time	SC_y	SC_z	SC_x	AC_y	AC_z	AC_x	GH_y	GH_z	GH_yy	EL_x	PS_y
       0.0              -53.58          9.208          76.73          34.71         -6.589         -1.797          59.56         -5.331         -53.76          90.37          24.68
   0.01131              -53.58          9.212          76.72          34.72         -6.587         -1.796          59.57         -5.333         -53.76          90.36          24.69
   0.02262              -53.57          9.216          76.72          34.72         -6.585         -1.794          59.58         -5.335         -53.76          90.36           24.7
   0.03392              -53.57          9.221          76.72          34.73         -6.583         -1.792          59.59         -5.337         -53.77          90.35          24.71
   0.04523              -53.56          9.226          76.72          34.73         -6.581          -1.79          59.61         -5.339         -53.77          90.35          24.72
   0.05654              -53.56          9.231          76.71          34.74         -6.579         -1.788          59.62         -5.341         -53.77          90.35          24.74
   0.06785              -53.55          9.237          76.71          34.74         -6.576         -1.786          59.64         -5.344         -53.78          90.34          24.75
   0.07916              -53.54          9.243          76.71          34.75         -6.574         -1.784          59.66         -5.346         -53.78          90.33          24.77
   0.09046              -53.54          9.249          76.71          34.76         -6.571         -1.781          59.68         -5.349         -53.79          90.33          24.78
    0.1018              -53.53          9.256           76.7          34.76         -6.568         -1.779          59.69         -5.352          -53.8          90.32           24.8
    0.1131              -53.52          9.264           76.7          34.77         -6.565         -1.776          59.72         -5.355          -53.8          90.32          24.82
    0.1244              -53.51          9.272           76.7          34.78         -6.561         -1.773          59.74         -5.359         -53.81          90.31          24.84
    0.1357               -53.5           9.28          76.69          34.79         -6.557         -1.769          59.76         -5.363         -53.81           90.3          24.86
     0.147              -53.49           9.29          76.69           34.8         -6.553         -1.766          59.79         -5.367         -53.82          90.29          24.88
    0.1583              -53.48            9.3          76.68          34.81         -6.549         -1.762          59.82         -5.371         -53.83          90.28          24.91
    0.1696              -53.47          9.311          76.68          34.82         -6.544         -1.758          59.85         -5.376         -53.84          90.27          24.94
    0.1809              -53.46          9.323          76.67          34.83         -6.539         -1.753          59.88         -5.381         -53.85          90.26          24.97
    0.1922              -53.45          9.336          76.67          34.85         -6.533         -1.748          59.92         -5.387         -53.86          90.25           25.0
    0.2035              -53.43           9.35          76.66          34.86         -6.527         -1.743          59.96         -5.393         -53.87          90.24          25.03
    0.2149              -53.41          9.365          76.65          34.88          -6.52         -1.737          60.01           -5.4         -53.88          90.22          25.07
    0.2262               -53.4          9.382          76.65           34.9         -6.513          -1.73          60.06         -5.407          -53.9          90.21          25.11
    0.2375              -53.38          9.401          76.64          34.92         -6.505         -1.723          60.11         -5.415         -53.91          90.19          25.16
    0.2488              -53.35          9.422          76.63          34.94         -6.496         -1.715          60.17         -5.424         -53.93          90.17          25.21
    0.2601              -53.33          9.445          76.62          34.96         -6.486         -1.706          60.23         -5.434         -53.95          90.15          25.27
    0.2714               -53.3           9.47          76.61          34.99         -6.475         -1.696          60.31         -5.445         -53.97          90.12          25.33
    0.2827              -53.27          9.499          76.59          35.02         -6.462         -1.685          60.39         -5.458         -53.99           90.1           25.4
     0.294              -53.24          9.531          76.58          35.05         -6.448         -1.673          60.48         -5.472         -54.02          90.07          25.48
